<?xml version="1.0" encoding="utf-8"?>
<!-- Generator: Adobe Illustrator 23.0.3, SVG Export Plug-In . SVG Version: 6.00 Build 0)  -->
<svg version="1.1" baseProfile="basic" id="Layer_1"
	 xmlns="http://www.w3.org/2000/svg" xmlns:xlink="http://www.w3.org/1999/xlink" x="0px" y="0px" viewBox="0 0 344 512"
	 xml:space="preserve">
<style type="text/css">
	.st0{fill:#FFFFFF;}
</style>
<path class="st0" d="M156,0c10.67,0,21.33,0,32,0c3.21,0.61,6.41,1.23,9.62,1.82C269.83,15.28,316.71,57.2,338.1,127.4
	c2.83,9.27,3.97,19.06,5.9,28.6c0,11,0,22,0,33c-0.32,1.26-0.71,2.5-0.96,3.77c-1.93,9.78-3.32,19.69-5.84,29.31
	c-5.45,20.84-16.61,39.1-27.12,57.61c-9.79,17.23-16.68,35.44-19.59,55.15c-1.21,8.17-3.38,16.2-4.93,24.33
	c-0.43,2.25-0.87,4.86-0.17,6.92c3.73,11.02,3.78,21.93-0.51,32.71c-1.2,3.02-1.15,5.43,0.02,8.44
	c8.81,22.56-1.09,47.88-22.83,58.25c-2.86,1.36-4.2,3.09-5.21,5.94c-6.97,19.52-20.55,32.24-40.28,38.43
	c-2.5,0.78-5.04,1.43-7.57,2.14c-24.67,0-49.33,0-74,0c-0.41-0.26-0.79-0.66-1.23-0.75c-23.55-4.78-39.23-18.51-47.19-41.2
	c-0.56-1.6-2.24-3.23-3.81-3.99c-22.82-11.08-32.69-36.23-23.53-59.83c0.73-1.88,0.38-4.32,0.07-6.44
	c-0.98-6.69-3.01-13.35-3.07-20.03c-0.06-6.4,2.9-12.88,2.58-19.23c-0.34-6.64-3.12-13.14-4.63-19.75
	c-2.44-10.68-3.3-21.97-7.36-31.97c-6.48-15.95-14.75-31.21-22.81-46.47c-8.19-15.51-15.65-31.25-19.48-48.44
	C2.71,205.68,1.49,197.31,0,189c0-11,0-22,0-33c0.61-3.21,1.22-6.41,1.82-9.62C15.29,74.17,57.19,27.28,127.4,5.9
	C136.67,3.08,146.45,1.93,156,0z M171.75,354c23.16,0,46.33,0.06,69.49-0.03c10-0.04,14.89-4.35,16.03-13.97
	c1.91-16.25,4.45-32.5,11.19-47.44c7.51-16.65,16.01-32.89,24.86-48.88c16.25-29.37,21.78-60.46,16.79-93.53
	C298.94,76.06,228.44,23.24,154.06,33.2C74,43.93,19.48,119.45,34.25,198.89c3.68,19.81,11.89,37.69,22.13,54.76
	c15.77,26.29,27.1,54.05,30.14,84.88c1.15,11.71,5.87,15.46,17.75,15.47C126.76,354.01,149.25,354,171.75,354z M172,368
	c-22,0-44-0.01-66,0c-11.39,0.01-18.01,5.31-17.86,14.25c0.15,8.73,6.63,13.75,17.85,13.75c43.83,0.01,87.66,0.01,131.49-0.01
	c2,0,4.02,0.03,5.99-0.23c7.13-0.96,12.22-6.6,12.35-13.51c0.13-7.12-4.98-12.99-12.35-14.01c-1.97-0.27-3.99-0.23-5.99-0.23
	C215.66,367.99,193.83,368,172,368z M172.24,438c19.83,0,39.66,0.01,59.5-0.01c3.66,0,7.35,0.13,10.99-0.19
	c7.71-0.67,13.1-6.49,13.1-13.81c0-7.35-5.34-13.03-13.09-13.83c-1.82-0.19-3.66-0.16-5.49-0.16c-37.5-0.01-75-0.01-112.49,0
	c-7.5,0-15.01-0.18-22.49,0.12c-8.38,0.33-14.08,6.17-14.11,13.88c-0.02,7.67,5.73,13.37,14.1,13.93c1.49,0.1,3,0.07,4.5,0.07
	C128.58,438,150.41,438,172.24,438z M227.39,452.37c-37.03,0-74.06,0-111.1,0c0.38,14.76,11.24,26.86,25.66,27.3
	c19.98,0.6,40,0.58,59.98,0.01C216.62,479.27,228.49,465.93,227.39,452.37z"/>
</svg>
